<?xml version="1.0" encoding="utf-8"?>
<!-- Generator: Adobe Illustrator 26.4.1, SVG Export Plug-In . SVG Version: 6.00 Build 0)  -->
<svg version="1.1" id="_x32_" xmlns="http://www.w3.org/2000/svg" xmlns:xlink="http://www.w3.org/1999/xlink" x="0px" y="0px"
	 viewBox="0 0 800 800" style="enable-background:new 0 0 800 800;" xml:space="preserve">
<style type="text/css">
	.st0{fill:#00CCFF;}
	.st1{fill:none;stroke:#00CCFF;stroke-width:23;stroke-miterlimit:10;}
</style>
<g>
	<path class="st0" d="M663.6,0c-21.8,0-39.4,17.6-39.4,39.3c0,21.7,17.6,39.4,39.3,39.4s39.4-17.6,39.4-39.3
		C702.9,17.6,685.3,0,663.6,0z"/>
	<path class="st0" d="M670.4,187.6c0-12.8-10.3-23.2-23.1-23.2c-12.8,0-23.2,10.3-23.2,23.1c0,12.8,10.4,23.2,23.1,23.2
		C660.1,210.7,670.4,200.3,670.4,187.6z"/>
	<path class="st0" d="M720.7,102c-15.3,0-27.7,12.3-27.7,27.6c0,15.3,12.4,27.7,27.7,27.7c15.3,0,27.7-12.4,27.7-27.6
		C748.3,114.4,736,102,720.7,102z"/>
	<path class="st0" d="M519.3,189.3c-18.6-18.7-49-18.7-67.6,0c-12.1,12.1-16.3,29-12.8,44.5l-3.1,3.1L88.7,584.1
		c-49.3,49.3-49.3,129.6,0,178.9c49.3,49.3,129.6,49.3,178.9,0l347.2-347.2l3.1-3.1c15.5,3.5,32.5-0.7,44.5-12.8
		c18.6-18.7,18.7-49,0-67.6L519.3,189.3z M596.6,401.8l-89.8,89.8L251.5,746.9c-40.5,40.5-106.2,40.5-146.8,0
		c-40.5-40.5-40.5-106.2,0-146.8l254.1-254.1l91.1-91.1l4.4-4.4c0.6,0.7,1.2,1.3,1.8,1.9l143,143c0.6,0.6,1.3,1.2,1.9,1.8
		L596.6,401.8z M646.3,383.9c-6.8,6.8-16.4,8.9-25,6.3l-6.5-6.5L468,236.9l-6.5-6.5c-2.6-8.6-0.5-18.3,6.3-25
		c9.8-9.8,25.7-9.8,35.5,0l143,143C656.1,358.2,656.1,374.1,646.3,383.9z"/>
	<line class="st1" x1="143.8" y1="545" x2="470.9" y2="545"/>
</g>
</svg>
