<?xml version="1.0" encoding="utf-8"?>
<!-- Generator: Adobe Illustrator 26.4.1, SVG Export Plug-In . SVG Version: 6.00 Build 0)  -->
<svg version="1.1" id="Layer_1" xmlns="http://www.w3.org/2000/svg" xmlns:xlink="http://www.w3.org/1999/xlink" x="0px" y="0px"
	 viewBox="0 0 800 800" style="enable-background:new 0 0 800 800;" xml:space="preserve">
<style type="text/css">
	.st0{fill:#00CCFF;}
</style>
<g>
	<g>
		<path class="st0" d="M325,383.3V302H129v81.4H0v33.3h129V498H325v-81.4h475v-33.3H325z M291.7,464.7H162.3V335.3h129.4
			L291.7,464.7L291.7,464.7z"/>
	</g>
</g>
<g>
	<g>
		<path class="st0" d="M613.6,674.2v-81.4H417.5v81.4H0v33.3h417.5v81.4h196.1v-81.4H800v-33.3H613.6z M580.3,755.6H450.9V626.1
			h129.4V755.6L580.3,755.6z"/>
	</g>
</g>
<g>
	<g>
		<path class="st0" d="M449.5,92.5V11.1H253.4v81.4H0v33.3h253.4v81.4h196.1v-81.4H800V92.5H449.5z M416.2,173.9H286.8V44.5h129.4
			L416.2,173.9L416.2,173.9z"/>
	</g>
</g>
</svg>
