<?xml version="1.0" encoding="utf-8"?>
<!-- Generator: Adobe Illustrator 26.4.1, SVG Export Plug-In . SVG Version: 6.00 Build 0)  -->
<svg version="1.1" id="Capa_1" xmlns="http://www.w3.org/2000/svg" xmlns:xlink="http://www.w3.org/1999/xlink" x="0px" y="0px"
	 viewBox="0 0 800 800" style="enable-background:new 0 0 800 800;" xml:space="preserve">
<style type="text/css">
	.st0{fill:#00CCFF;}
</style>
<g>
	<g>
		<g>
			<path class="st0" d="M719.7,635.1c-78.7-35.5-81.7-188-81.7-191.9V340.9c0-98.5-60.2-183.1-145.7-219.2
				C492.1,71.1,450.9,30,400.2,30c-50.7,0-91.9,41.1-92.1,91.7c-85.5,36.1-145.7,120.7-145.7,219.2v102.3
				c-0.1,3.8-3.1,156.3-81.7,191.9c-9,4-13.9,13.8-11.8,23.4C71,668.2,79.5,675,89.4,675h199.4c4.1,22.5,14.7,43.4,31,60.4
				c21.6,22.5,50.2,34.9,80.4,34.9c30.3,0,58.8-12.4,80.4-34.9c16.3-16.9,26.9-37.9,31-60.4h199.4c9.8,0,18.3-6.9,20.4-16.5
				C733.6,648.9,728.7,639.2,719.7,635.1z M616.1,562.1c8.3,25.1,20,50.3,36.6,71.2H147.8c16.6-21,28.3-46.1,36.6-71.2H616.1z
				 M400.2,71.8c22.9,0,42.3,15.4,48.4,36.4c-15.6-3.2-31.8-4.9-48.4-4.9s-32.7,1.7-48.4,4.9C358,87.2,377.3,71.8,400.2,71.8z
				 M204.2,443.4V340.9c0-108.1,87.9-196,196-196s196,87.9,196,196v102.6c0,3.1,0.5,36.1,8.8,76.8H195.4
				C203.7,479.7,204.2,446.6,204.2,443.4z M400.2,728.5c-31.9,0-59.7-23-68.6-53.5h137.2C459.9,705.6,432.1,728.5,400.2,728.5z"/>
			<path class="st0" d="M400.2,174.2c-89.8,0-162.9,73.1-162.9,162.9c0,11.5,9.3,20.9,20.9,20.9c11.5,0,20.9-9.3,20.9-20.9
				c0-66.8,54.3-121.1,121.1-121.1c11.5,0,20.9-9.3,20.9-20.9C421.1,183.6,411.8,174.2,400.2,174.2z"/>
		</g>
	</g>
</g>
</svg>
