<?xml version="1.0" encoding="utf-8"?>
<!-- Generator: Adobe Illustrator 26.4.1, SVG Export Plug-In . SVG Version: 6.00 Build 0)  -->
<svg version="1.1" id="Layer_1" xmlns="http://www.w3.org/2000/svg" xmlns:xlink="http://www.w3.org/1999/xlink" x="0px" y="0px"
	 viewBox="0 0 800 800" style="enable-background:new 0 0 800 800;" xml:space="preserve">
<style type="text/css">
	.st0{fill:#00CCFF;}
</style>
<g>
	<g>
		<g>
			<path class="st0" d="M786.7,746.7H72.1l226.4-226.4c38.9,40.9,93.8,66.4,154.7,66.4c117.8,0,213.3-95.5,213.3-213.3
				c0-60.9-25.5-115.8-66.4-154.7L796,22.8c5.2-5.2,5.2-13.6,0-18.9c-5.2-5.2-13.6-5.2-18.9,0L579.6,201.4
				c-35.4-26-79.1-41.5-126.4-41.5c-117.8,0-213.3,95.5-213.3,213.3c0,47.3,15.4,91,41.4,126.4l-228,228V13.3C53.3,6,47.4,0,40,0
				S26.7,6,26.7,13.3v733.3H13.3C6,746.7,0,752.6,0,760s6,13.3,13.3,13.3h13.3v13.3c0,7.4,6,13.3,13.3,13.3s13.3-6,13.3-13.3v-13.3
				h733.3c7.4,0,13.3-6,13.3-13.3S794,746.7,786.7,746.7z M639.4,360H466.6V187.1C559,193.7,632.9,267.5,639.4,360z M439.9,187.1
				v186.2c0,7.4,6,13.3,13.3,13.3h186.2C632.6,483.5,551.8,560,453.2,560c-103.1,0-186.7-83.6-186.7-186.7
				C266.6,274.7,343,194,439.9,187.1z"/>
			<path class="st0" d="M93.3,386.7H120c7.4,0,13.3-6,13.3-13.3c0-7.4-6-13.3-13.3-13.3H93.3C86,360,80,366,80,373.3
				C80,380.7,86,386.7,93.3,386.7z"/>
			<path class="st0" d="M93.3,333.3H120c7.4,0,13.3-6,13.3-13.3c0-7.4-6-13.3-13.3-13.3H93.3c-7.4,0-13.3,6-13.3,13.3
				C80,327.4,86,333.3,93.3,333.3z"/>
			<path class="st0" d="M93.3,280H120c7.4,0,13.3-6,13.3-13.3s-6-13.3-13.3-13.3H93.3c-7.4,0-13.3,6-13.3,13.3S86,280,93.3,280z"/>
			<path class="st0" d="M93.3,226.7H120c7.4,0,13.3-6,13.3-13.3s-6-13.3-13.3-13.3H93.3C86,200,80,206,80,213.3S86,226.7,93.3,226.7
				z"/>
			<path class="st0" d="M93.3,173.3H120c7.4,0,13.3-6,13.3-13.3s-6-13.3-13.3-13.3H93.3c-7.4,0-13.3,6-13.3,13.3
				S86,173.3,93.3,173.3z"/>
			<path class="st0" d="M93.3,120H120c7.4,0,13.3-6,13.3-13.3s-6-13.3-13.3-13.3H93.3c-7.4,0-13.3,6-13.3,13.3S86,120,93.3,120z"/>
			<path class="st0" d="M93.3,66.7H120c7.4,0,13.3-6,13.3-13.3S127.4,40,120,40H93.3C86,40,80,46,80,53.3S86,66.7,93.3,66.7z"/>
		</g>
	</g>
</g>
</svg>
