<?xml version="1.0" encoding="utf-8"?>
<!-- Generator: Adobe Illustrator 26.4.1, SVG Export Plug-In . SVG Version: 6.00 Build 0)  -->
<svg version="1.1" id="Layer_2" xmlns="http://www.w3.org/2000/svg" xmlns:xlink="http://www.w3.org/1999/xlink" x="0px" y="0px"
	 viewBox="0 0 380.7 240.5" style="enable-background:new 0 0 380.7 240.5;" xml:space="preserve">
<style type="text/css">
	.st0{fill:#00CCFF;}
	.st1{fill:#FFFFFF;}
	.st2{fill:#00CCFF;stroke:#00CCFF;stroke-width:17;stroke-miterlimit:10;}
	.st3{fill:#00CCFF;stroke:#00CCFF;stroke-width:19;stroke-miterlimit:10;}
</style>
<path class="st0" d="M188.5,15C129.9,2.4,71.9,39.9,59.3,98.5c-5.4,25.3-1.5,50.6,9.4,72l-58.4,38.1c-11.2,20,11.3,20.9,11.3,20.9
	l60.3-38.9c15.1,18.2,36.1,31.7,60.9,37c58.7,12.6,116.6-24.9,129.2-83.6c4.8-22.2,2.4-44.2-5.6-63.8c-5.8-14.2-14.5-27-25.5-37.6
	C226.8,29.3,209,19.4,188.5,15z M146.4,211.1c-49.5-10.6-81.1-59.5-70.5-109S135.5,21,185,31.6c17,3.6,31.9,11.8,43.7,22.9
	c4.5,4.2,8.5,8.9,12.1,14c4.1,5.9,7.6,12.2,10.3,19c6.5,16.3,8.4,34.7,4.5,53.2C244.8,190.1,195.9,221.8,146.4,211.1z"/>
<path class="st0" d="M217.2,67.4"/>
<path class="st0" d="M161.5,48.6"/>
<path class="st0" d="M174.6,195c-2.2,2.3-8,6.8-12.4-3.5c-0.4-1-1.3-1.7-2.3-1.9l-40.2-9c-1.3-0.3-2.2-1.3-2.5-2.5
	c-0.6-2.5-1.1-6.6,2.1-7.8c0.6-0.2,1.2-0.2,1.7-0.1l38.7,8.4c1.9,0.4,3.8-0.9,4.1-2.8c0.3-2.1,0-4.9-2-8c-0.5-0.7-1.3-1.2-2.1-1.4
	c-4.8-1-21.6-4.3-27.8-5.6c-1.5-0.3-2.7-1.6-2.7-3.2c-0.1-1.6,0.2-3.5,1.3-5.2c0.8-1.1,2.2-1.6,3.5-1.3l13.2,2.9
	c3,0.7,5.3-2.8,3.4-5.3c-9.5-12.9-25.5-39.4-7.5-52.6c0,0,11.8-9.1,26.5-8c2.8,0.2,4.5-2.9,3-5.2c-5.4-8.3-12.4-22.8-7.8-36.9
	c2.6-8,10.6,0.8,13,3.7c0.5,0.6,1.1,1,1.9,1.1l40.1,8.7c1.1,0.2,2.1,1,2.4,2.1c0.7,2,1.1,5.1-2.5,6.9c-0.6,0.3-1.4,0.4-2.1,0.3
	c-5-1-27-5.4-37.3-7.5c-2.7-0.6-5,2.3-3.7,4.8c0.5,1,1.2,2.2,2.2,3.6c0.5,0.7,1.2,1.2,2.1,1.4c5,1.1,23.8,5.3,28,6.2
	c0.6,0.1,1.2,0.5,1.7,0.9c1.5,1.5,4,5-0.5,7.9c-0.7,0.5-1.6,0.6-2.4,0.4l-13.6-2.7c-3-0.6-5.2,2.8-3.4,5.3
	c8.6,11.9,22.4,36.3,7.4,53.4c-15.4,17.5-31.1-8.2-31.3-8.5c-0.1-0.3-0.5-1.7-0.5-1.7l17.2,3.2c1,0.2,2.1-0.1,2.9-0.8
	c0.8-0.7,1.9-1.8,2.8-2.9c1.5-2,0.4-4.9-2-5.4c-6.6-1.3-21.1-4.3-26.3-5.3c-1.3-0.3-2.3-1.2-2.6-2.5c-0.4-1.8-0.8-4.3-0.1-6.1
	c0.6-1.4,2.2-2.2,3.7-1.9c3.9,0.7,16.6,3.1,24,4.4c2.6,0.5,4.7-2.1,3.8-4.5c-0.8-2.2-2-4.6-3.5-6.2c-0.5-0.5-1.1-0.9-1.8-1
	l-17.6-3.6c-0.3-0.1-0.5-0.1-0.8-0.1c-4.7,0.2-44.6,3.5,2.7,52.8c7,7.3,7.1,34.4,7,40.4C175.5,193.6,175.2,194.4,174.6,195z"/>
<line class="st0" x1="229.4" y1="55" x2="241.8" y2="43.4"/>
<rect x="241.5" y="75.1" transform="matrix(0.85 -0.5268 0.5268 0.85 -6.0078 147.8174)" class="st1" width="30.1" height="18.6"/>
<g>
	<line class="st2" x1="259.9" y1="103.8" x2="305.2" y2="74.5"/>
	<line class="st2" x1="330.9" y1="100" x2="290.9" y2="81.1"/>
	<line class="st2" x1="324.6" y1="100.1" x2="349.8" y2="32.6"/>
	<circle class="st3" cx="352.2" cy="29.5" r="9.7"/>
	
		<ellipse transform="matrix(0.3794 -0.9252 0.9252 0.3794 111.2984 363.2773)" class="st3" cx="326.5" cy="98.7" rx="5.6" ry="5.6"/>
	
		<ellipse transform="matrix(0.3794 -0.9252 0.9252 0.3794 107.4515 321.4027)" class="st3" cx="293.3" cy="80.6" rx="5.6" ry="5.6"/>
</g>
</svg>
