<?xml version="1.0" encoding="utf-8"?>
<!-- Generator: Adobe Illustrator 26.4.1, SVG Export Plug-In . SVG Version: 6.00 Build 0)  -->
<svg version="1.1" id="Layer_1" xmlns="http://www.w3.org/2000/svg" xmlns:xlink="http://www.w3.org/1999/xlink" x="0px" y="0px"
	 viewBox="0 0 800 800" style="enable-background:new 0 0 800 800;" xml:space="preserve">
<style type="text/css">
	.st0{fill:#00CCFF;}
</style>
<path class="st0" d="M700,206.2H593.8V125C593.7,87,563,56.3,525,56.2H275c-37.9,0.1-68.7,30.8-68.8,68.8v81.2H100
	c-38,0.1-68.7,30.8-68.8,68.8v400c0,38,30.8,68.7,68.8,68.8h200c10.3,0,18.8-8.4,18.8-18.8s-8.4-18.8-18.8-18.8l0,0H100
	c-17.2,0-31.2-14-31.2-31.2V418.8H325c10.3,0,18.8-8.4,18.8-18.8s-8.4-18.8-18.8-18.8l0,0H68.8V275c0-17.2,14-31.2,31.2-31.2h600
	c17.2,0,31.2,14,31.2,31.2v50c0,10.3,8.4,18.8,18.8,18.8s18.8-8.4,18.8-18.8l0,0v-50C768.7,237.1,738,206.3,700,206.2L700,206.2z
	 M243.8,206.2V125c0-17.2,14-31.2,31.2-31.2h250c17.2,0,31.2,14,31.2,31.2v81.2H243.8z M586.3,566.9V475c0-10.3-8.4-18.8-18.8-18.8
	c-10.4,0-18.8,8.4-18.8,18.8l0,0v99.7v0c0,5.1,2.1,9.8,5.5,13.2l0,0l39.8,39.9c3.4,3.5,8.2,5.7,13.5,5.7c10.3,0,18.8-8.4,18.8-18.8
	c0-5.3-2.2-10-5.7-13.4l0,0L586.3,566.9z M560.3,352c-115.1,0-208.4,93.3-208.4,208.4s93.3,208.4,208.4,208.4
	s208.4-93.3,208.4-208.4l0,0C768.6,445.3,675.4,352.1,560.3,352L560.3,352L560.3,352z M560.3,731.2c-94.4,0-170.9-76.5-170.9-170.9
	S466,389.4,560.3,389.4S731.2,466,731.2,560.3l0,0C731.2,654.7,654.7,731.1,560.3,731.2L560.3,731.2z"/>
</svg>
