<?xml version="1.0" encoding="utf-8"?>
<!-- Generator: Adobe Illustrator 26.4.1, SVG Export Plug-In . SVG Version: 6.00 Build 0)  -->
<svg version="1.1" id="Layer_1" xmlns="http://www.w3.org/2000/svg" xmlns:xlink="http://www.w3.org/1999/xlink" x="0px" y="0px"
	 viewBox="0 0 800 800" style="enable-background:new 0 0 800 800;" xml:space="preserve">
<style type="text/css">
	.st0{fill:#00CCFF;}
</style>
<path class="st0" d="M712.5,731.2H604.7c22.9-13,42.4-28.5,59.2-46.8l0.2-0.2c41.8-48.1,67.2-111.4,67.2-180.6c0-1.3,0-2.6,0-3.9
	v0.2c0.1-2.5,0.2-5.5,0.2-8.5c0-140-110.9-254.2-249.7-259.4l-0.5,0V175c-0.1-31.2-21-57.5-49.5-65.7l-0.5-0.1V50
	c0-10.4-8.4-18.8-18.8-18.8h-100c-10.4,0-18.8,8.4-18.8,18.8l0,0v59.2c-29,8.4-49.9,34.7-50,65.8v300c0,38,30.8,68.7,68.8,68.8h100
	c37.9,0,68.7-30.8,68.8-68.8V270.5C599.6,274.9,693.9,372,693.9,491c0,3.1-0.1,6.2-0.2,9.4l0-0.5c0,1.1,0,2.4,0,3.7
	c0,59.7-21.9,114.2-58.1,156l0.2-0.3c-41.1,44.4-99.6,72-164.6,72c-3.1,0-6.2-0.1-9.3-0.2l0.4,0h-375c-10.3,0-18.8,8.4-18.8,18.8
	c0,10.3,8.4,18.8,18.8,18.8l0,0h625c10.3,0,18.8-8.4,18.8-18.8C731.2,739.6,722.8,731.2,712.5,731.2L712.5,731.2L712.5,731.2z
	 M331.2,68.8h62.5v37.5h-62.5V68.8z M443.8,475c0,17.2-14,31.2-31.2,31.2h-100c-17.2,0-31.2-14-31.2-31.2V175
	c0-17.2,14-31.2,31.2-31.2h100c17.2,0,31.2,14,31.2,31.2l0,0V475z M212.5,656.1h300c10.3,0,18.8-8.4,18.8-18.8s-8.4-18.8-18.8-18.8
	l0,0h-300c-10.3,0-18.8,8.4-18.8,18.8S202.2,656.1,212.5,656.1L212.5,656.1z"/>
</svg>
