<?xml version="1.0" encoding="utf-8"?>
<!-- Generator: Adobe Illustrator 26.4.1, SVG Export Plug-In . SVG Version: 6.00 Build 0)  -->
<svg version="1.1" id="Layer_1" xmlns="http://www.w3.org/2000/svg" xmlns:xlink="http://www.w3.org/1999/xlink" x="0px" y="0px"
	 viewBox="0 0 800 800" style="enable-background:new 0 0 800 800;" xml:space="preserve">
<style type="text/css">
	.st0{fill:#00CCFF;}
</style>
<g>
	<g>
		<path class="st0" d="M780,280.1c-3.8-8.9-14.1-12.9-23-9c-1.4,0.5-2.8,1.4-3.8,2.3c-42.1,33.8-81.4,44.5-119.5,55
			c-33.6,9.2-68.2,18.8-102.8,43.3c-38.1,27.1-61.1,66.1-61.1,104.6c0,22.6,7.8,54.8,42.1,86.3c-32.7,43.7-56.2,89.3-70.8,122.3
			c-23.5-72.4-54.1-142.3-91.7-208.6c55.2-27.8,88.9-64.9,99.5-110.1c15.8-68-24.5-130.5-50.1-161.6c-42.5-51.8-103.5-67-168.2-83
			c-58.8-14.6-119.3-29.6-169.8-73.8c-7.3-6.3-18.3-5.6-24.5,1.6c-0.9,1-1.7,2.3-2.4,3.7C-29.4,176.2,3,411.4,73.1,497
			c45.1,55.2,96.9,85.6,144.2,85.6c4.9,0,9.9-0.3,14.8-1c37.4-5.2,69.2-29.8,94.8-72.5c69.8,128.7,93.8,232.3,94.3,234
			c1.7,7.7,8.4,13.2,16.2,13.6h0.9c7.5,0,14.3-4.9,16.5-12c0.3-1.2,26.1-78.8,79.2-153.1c26.1,54.5,59.8,71.9,84.7,76.5
			c5.6,1,11.1,1.6,16.7,1.6c35.3,0,73.2-19.7,104.6-54.6C797.9,549.8,819.3,371.3,780,280.1z M150.7,222.2
			c-7.1-6.4-18.1-5.7-24.5,1.4c-6.3,7-5.7,17.6,0.9,24c77.4,72.4,135.9,152.1,179.5,226c-21.7,44.4-48.4,69.2-79.3,73.6
			c-38.3,5.4-85.8-21.6-127.2-72.2c-59.2-72-88.6-271.1-44.2-386.6c52.7,38.6,112.6,53.6,166,66.8c61.4,15.3,114.7,28.4,149.6,71.3
			c36.5,44.5,52.2,92.6,43.1,131.7c-8.4,35.3-36.4,64.9-83.3,88C286.9,372.8,228,294.4,150.7,222.2z M713.9,591.9
			c-28,31.5-61.4,47.1-88.9,41.9c-27-5-49.9-30.4-66.6-73.6c26.1-30.6,57.1-58.5,93.4-77.2c8.5-4.3,11.8-15,7.5-23.5
			c-4.3-8.5-15-11.8-23.5-7.5c-40,20.7-73.8,50.6-102,83.2c-19.1-18.3-29.2-38.4-29.2-59c0-27.1,17.4-55.7,46.5-76.2
			c29.6-21.1,59.8-29.4,91.9-38.1c34.1-9.4,72.2-19.8,112.6-47.1C780.5,402.9,755.6,545.1,713.9,591.9z"/>
	</g>
</g>
</svg>
